<svg xmlns="http://www.w3.org/2000/svg" viewBox="0 0 64 64">
  <rect width="64" height="64" fill="#f3eee6"/>
  <rect x="4" y="4" width="26" height="26" fill="#c8f04a"/>
  <path fill="#111" d="M14.7 9.2h6.6v6.6H28v6.4h-6.7v6.6h-6.6v-6.6H8.1v-6.4h6.6z"/>
  <rect x="34" y="4" width="26" height="26" fill="#ff4d2e"/>
  <path fill="#f3eee6" d="M47 7.4 49.1 16 57.6 18 49.1 20 47 28.6 44.9 20 36.4 18 44.9 16z"/>
  <rect x="4" y="34" width="26" height="26" fill="#f3b6c5"/>
  <path fill="#111" d="M17 38.2 25.8 47 17 55.8 8.2 47z"/>
  <rect x="34" y="34" width="26" height="26" fill="#3ed4c8"/>
  <path fill="#111" d="M47 37.4 49.1 46 57.6 48 49.1 50 47 58.6 44.9 50 36.4 48 44.9 46z"/>
</svg>
